<svg id="Layer_1" data-name="Layer 1" xmlns="http://www.w3.org/2000/svg" viewBox="0 0 764 926"><defs><style>.cls-1{fill-rule:evenodd;}</style></defs><title>wing</title><path class="cls-1" d="M108.5,760.5c2.6847-53.7668-4.6218-95.4771-8-107-29.2794-99.87-45.8459-197.8286-66-317-7.3171-43.2658-11.57-78.9276-14-102a282.54,282.54,0,0,0,73,17c26.7332,2.54,49.7866.8073,92-6,49.7068-8.0157,84.5917-13.6413,133-28,55.8979-16.58,101.6794-37.9788,230-103,51.0087-25.8466,117.2489-60.57,194-104-6.65,34.1305-21.8719,85.647-61,133-42.4484,51.3713-94.6322,72.2475-199,114-55.0343,22.0165-120.251,48.1974-212,62a811.9684,811.9684,0,0,1-128,9c21.5432,1.7081,129.8563,9.6328,223-10,46.4808-9.7972,96.2019-26.8806,96.2019-26.8806,16.4135-5.6225,34.0787-12.2511,52.7981-20.1194a836.5552,836.5552,0,0,0,160-89c-2.7987,27.3031-11.6561,69.5412-43,104-12.4983,13.74-34.918,33.2206-153,61-112.8734,26.554-198.5254,33.7238-230,36-47.6791,3.4481-87.3939,4.0816-115,4a861.0968,861.0968,0,0,0,252,2,861.1668,861.1668,0,0,0,248-74c-5.8824,25.0841-20.3209,68.4341-59,97-19.5784,14.4593-38.3928,19.98-101,29-95.7162,13.79-143.5667,20.7385-214,19a974.207,974.207,0,0,1-130-12,783.2862,783.2862,0,0,0,228,26,783.3037,783.3037,0,0,0,228-42c-5.9644,17.7883-20.7795,53.0374-56,77-17.0913,11.6282-34.3351,17.4332-56,22-63.06,13.2925-117.0824,6.2939-155,1-67.59-9.4366-129.1536-19.7593-184-30a662.5565,662.5565,0,0,0,190,50,663.1328,663.1328,0,0,0,220-13c-13.5161,19.7416-41.5253,54.1414-88,71-25.8777,9.3871-54.2327,12.3615-113,3-47.4137-7.5529-116.3973-23.3869-197-60a453.0288,453.0288,0,0,0,135,67c95.9308,28.9013,178.5713,18.6827,222,10-11.4945,17.2525-35.6243,47.6348-76,62-40.17,14.2919-75.1122,6.1213-115-4-35.0642-8.8973-91.8743-28.3713-153-75a356.9345,356.9345,0,0,0,279,102c-5.6185,12.0683-16.3335,29.8768-36,41-35.5815,20.1245-76.5573,4.8441-111-8-26.0823-9.7264-70.4933-30.6752-114-77a107.39,107.39,0,0,0,17.7589,34.1736C204.451,717.4529,214.8654,723.8864,229.5,734.5c13.49,9.7838,35.2057,25.5513,65,36,40.9105,14.347,79.0374,12.3589,105,8a85.478,85.478,0,0,1-26,27c-37.061,24.0124-82.6771,9.2327-105,2-45.6633-14.795-74.2867-44.3519-88-61a178.53,178.53,0,0,1-7,97,176.966,176.966,0,0,1-42,65H.5c25.1615-8.9446,76.0257-31.6049,97-81C106.1746,807.071,107.1147,788.2435,108.5,760.5Z"/><path d="M131.7046,909H-2.3994l2.7319-.9707c33.5435-11.9238,77.55-35.6084,96.7071-80.7246,8.64-20.3467,9.5634-38.8379,10.9609-66.8281l.4995.0254-.4995-.0265c2.7729-55.5293-5.0288-96.7666-7.9805-106.835C70.7334,553.7451,54.5269,457.917,34.0088,336.5938,28.2744,302.686,23.563,268.3579,20.0029,234.5522l-.0849-.8061.7583.2861a282.1813,282.1813,0,0,0,72.8711,16.97c26.05,2.4737,48.374,1.0181,91.873-5.9961,49.0908-7.916,84.56-13.6357,132.9375-27.9858,55.9673-16.6006,101.7-37.9976,229.9165-102.9663,64.79-32.83,130.0537-67.8169,193.98-103.9893l.9443-.5346-.207,1.0654c-10.0293,51.4668-30.5879,96.29-61.1055,133.2227-42.53,51.47-94.8886,72.416-199.2,114.146l-.6474.2587c-56.2549,22.5059-120.0166,48.0142-211.4639,61.7715a815.1028,815.1028,0,0,1-113.9892,9.0078c44.9116,2.8575,131.8183,5.2369,208.8115-10.9917,45.918-9.6787,95.6465-26.6938,96.1435-26.8647,17.6709-6.0527,35.4239-12.8179,52.7666-20.1069a837.4578,837.4578,0,0,0,159.9043-88.9468l.8995-.6382-.1133,1.0967c-4.3594,42.53-18.8692,77.6172-43.127,104.2856-14.0517,15.4478-38.6406,34.1865-153.2558,61.15-77.7813,18.2984-157.3409,30.751-230.0782,36.0117-36.041,2.607-72.4741,3.9527-108.393,4.0064a859.4608,859.4608,0,0,0,245.2876,1,859.3721,859.3721,0,0,0,247.8564-73.957l.9365-.4419-.2373,1.0083c-9.9414,42.3906-30.4082,76.0322-59.1894,97.288-19.8438,14.6558-38.7647,20.0938-101.2256,29.0928l-1.2822.1846C377.3174,455.8633,329.6445,462.7334,259.4878,461a977.8448,977.8448,0,0,1-120.2554-10.4873,781.7944,781.7944,0,0,0,218.251,23.4878,781.7909,781.7909,0,0,0,227.8545-41.9732l.958-.33-.3223.9614c-7.7334,23.0639-23.7607,55.1894-56.1924,77.2544-15.4824,10.5327-31.7578,16.9282-56.1777,22.0757-64.6992,13.6386-121.333,5.73-155.1728,1.0058-59.8594-8.3575-120.2412-18.1675-179.542-29.1694a661.2,661.2,0,0,0,185.6649,48.1772,660.8224,660.8224,0,0,0,219.834-12.99l1.248-.2861-.7236,1.0556c-23.3457,34.1-53.8584,58.7158-88.2412,71.1875-24.9111,9.0371-52.5438,12.6934-113.25,3.0244-64.8032-10.3231-129.5566-29.8222-192.5391-57.9716a451.2011,451.2011,0,0,0,130.7623,63.999c70.9078,21.3633,147.59,24.8155,221.7583,9.9883l1.1827-.2364-.669,1.0039c-20.0312,30.0666-46.3974,51.5733-76.248,62.1935-41.4561,14.75-77.3194,5.6494-115.291-3.9864-51.9839-13.1905-101.3288-36.8261-146.7789-70.2891a354.65,354.65,0,0,0,116.0826,73.3389,359.4042,359.4042,0,0,0,156.78,22.9678l.8536-.0665-.3614.7754c-8.6982,18.6856-20.88,32.5557-36.207,41.2246-35.7842,20.2383-77.7207,4.6-111.418-7.9658-41.9936-15.66-79.8926-41.0655-112.6748-75.5215a106.2485,106.2485,0,0,0,17,31.9179c7.689,9.8526,16.4214,16.0743,27.4771,23.9523,2.123,1.5117,4.34,3.0918,6.6636,4.7772,13.2036,9.5762,35.1943,25.5254,64.872,35.9327,32.7134,11.4716,67.9575,14.1582,104.7515,7.9785l1.09-.1826-.582.9384A85.5119,85.5119,0,0,1,373.7715,805.92c-37.2569,24.1416-83.2979,9.2256-105.4243,2.0567-41.6221-13.4864-70.1-39.5586-86.97-59.64a178.1689,178.1689,0,0,1-7.4082,95.335A178.2792,178.2792,0,0,1,131.85,908.8562ZM3.3511,908H131.2949a177.28,177.28,0,0,0,41.7359-64.6719,177.3125,177.3125,0,0,0,6.98-96.7275l-.4068-1.9755,1.2822,1.5565c16.61,20.1651,45.32,47.089,87.7686,60.8428,21.98,7.1221,67.7158,21.9385,104.5742-1.9443a84.2243,84.2243,0,0,0,25.2588-25.9052c-36.5644,5.9677-71.6025,3.2119-104.1528-8.2032-29.8159-10.4561-51.88-26.4589-65.0635-36.02-2.3857-1.73-4.6006-3.3085-6.7212-4.8193-11.1221-7.9248-19.9067-14.1835-27.6851-24.1514a107.5714,107.5714,0,0,1-17.8422-34.333l-.647-2.0761,1.4888,1.5849c33.0229,35.1621,71.3144,61.0264,113.81,76.8741,35.25,13.1455,75.2,28.0458,110.5791,8.0332,14.9287-8.4434,26.8457-21.9,35.4287-40A360.3772,360.3772,0,0,1,281.32,692.9654a355.9321,355.9321,0,0,1-122.17-79.11l.6543-.753c47.0991,35.9288,98.5152,61.1329,152.82,74.9131,37.8194,9.5957,73.54,18.6582,114.709,4.0137,29.3135-10.43,55.253-31.4424,75.0791-60.8037-73.958,14.5889-150.3672,11.0488-221.0551-10.2471a452.4712,452.4712,0,0,1-135.1495-67.0732l-4.0258-2.916,4.5258,2.0556c64.3438,29.2276,130.5811,49.4014,196.8726,59.961,60.4932,9.6377,87.9912,6.0048,112.75-2.9756,33.8281-12.2715,63.8994-36.3809,87.0313-69.7569A661.6729,661.6729,0,0,1,324.4474,552.997,662.2652,662.2652,0,0,1,134.3027,502.96l-4.1328-1.7764,4.4219.8252c60.7241,11.3384,122.623,21.43,183.9775,29.9966,33.7744,4.7148,90.3037,12.6074,154.8272-.9942,24.2832-5.1181,40.456-11.47,55.8222-21.9243,31.753-21.603,47.6758-52.9409,55.4815-75.7842A782.7187,782.7187,0,0,1,357.5166,475a782.759,782.759,0,0,1-228.1455-26.0166l.208-.9766A977.7525,977.7525,0,0,0,259.5122,460c70.0786,1.7314,117.7183-5.1348,212.6343-18.81l1.2822-.185c62.2588-8.97,81.0947-14.3726,100.7744-28.9072,28.3584-20.9439,48.5977-54.022,58.5713-95.7032a860.32,860.32,0,0,1-247.2051,73.6006,860.6112,860.6112,0,0,1-252.1464-2.001l.0786-.9941c38.0581.1133,76.7207-1.2329,114.9624-3.9985,72.6855-5.2569,152.1914-17.7017,229.9218-35.9884,123.9112-29.15,142.668-49.7714,152.7442-60.85,23.9023-26.2774,38.2842-60.7979,42.7578-102.6167a838.469,838.469,0,0,1-159.1943,88.414c-17.3623,7.298-35.1369,14.0713-52.8291,20.1314-.4971.17-50.2823,17.2056-96.2608,26.8971C279.41,337.1572,180.84,332.041,142.46,328.9985l.044-.9985a813.6879,813.6879,0,0,0,127.9214-8.9946c91.332-13.74,155.0361-39.2256,211.2412-61.711l.6475-.2588c104.1533-41.6665,156.4326-62.58,198.8-113.854C711.3135,106.6343,731.7285,62.3232,741.8,11.4707,678.1641,47.46,613.209,82.2715,548.7256,114.9458c-128.2793,65.001-174.041,86.41-230.0835,103.0337-48.44,14.3682-83.9351,20.0918-133.0625,28.0142-43.5952,7.03-65.981,8.4887-92.127,6.0039A283.0974,283.0974,0,0,1,21.082,235.2529c3.548,33.5249,8.228,67.5557,13.9112,101.1636C55.5073,457.7178,71.71,553.5205,100.98,653.3594c2.9638,10.11,10.7988,51.499,8.0195,107.165v.002c-1.4033,28.0976-2.33,46.6591-11.0391,67.1689C79.1689,871.95,36.7114,895.7109,3.3511,908Z"/></svg>